<svg xmlns="http://www.w3.org/2000/svg" viewBox="0 0 155 100" role="img">
<title>广源尚居户型图</title>
<rect width="155" height="100" fill="#fbfbf6" opacity="0.08"/>
<polygon points="103.538,7.157 71.367,7.157 71.367,17.312 75.950,17.312 99.764,17.312 103.538,17.312" fill="rgb(255 253 246 / 0.10)" stroke="rgb(106 170 150 / 0.74)" stroke-width="0.42" stroke-linejoin="round" vector-effect="non-scaling-stroke"/>
<polygon points="69.300,43.912 40.902,43.912 40.902,73.927 69.300,73.927" fill="rgb(255 253 246 / 0.10)" stroke="rgb(106 170 150 / 0.74)" stroke-width="0.42" stroke-linejoin="round" vector-effect="non-scaling-stroke"/>
<polygon points="98.012,82.509 86.824,82.509 86.824,89.608 86.824,92.843 95.271,92.843 95.271,90.417 98.012,90.417" fill="rgb(255 253 246 / 0.10)" stroke="rgb(106 170 150 / 0.74)" stroke-width="0.42" stroke-linejoin="round" vector-effect="non-scaling-stroke"/>
<polygon points="85.476,80.891 71.367,80.891 71.367,92.843 85.476,92.843" fill="rgb(255 253 246 / 0.10)" stroke="rgb(106 170 150 / 0.74)" stroke-width="0.42" stroke-linejoin="round" vector-effect="non-scaling-stroke"/>
<polygon points="98.012,54.381 71.367,54.381 71.367,80.891 98.012,80.891" fill="rgb(255 253 246 / 0.10)" stroke="rgb(106 170 150 / 0.74)" stroke-width="0.42" stroke-linejoin="round" vector-effect="non-scaling-stroke"/>
<polygon points="71.367,20.367 103.538,20.367 103.538,54.381 71.367,54.381" fill="rgb(255 253 246 / 0.10)" stroke="rgb(106 170 150 / 0.74)" stroke-width="0.42" stroke-linejoin="round" vector-effect="non-scaling-stroke"/>
<polygon points="114.098,56.583 107.178,56.583 100.079,56.583 100.079,59.953 100.079,67.052 100.079,72.084 111.312,72.084 111.312,67.501 114.098,67.501" fill="rgb(255 253 246 / 0.10)" stroke="rgb(106 170 150 / 0.74)" stroke-width="0.42" stroke-linejoin="round" vector-effect="non-scaling-stroke"/>
<polygon points="100.124,92.843 114.322,92.843 114.322,73.342 100.124,73.342" fill="rgb(255 253 246 / 0.10)" stroke="rgb(106 170 150 / 0.74)" stroke-width="0.42" stroke-linejoin="round" vector-effect="non-scaling-stroke"/>
<line x1="83.768" y1="92.843" x2="85.476" y2="92.843" stroke="#202821" stroke-width="1.15" stroke-linecap="round" vector-effect="non-scaling-stroke"/>
<line x1="85.476" y1="92.843" x2="85.476" y2="89.608" stroke="#202821" stroke-width="1.15" stroke-linecap="round" vector-effect="non-scaling-stroke"/>
<line x1="85.476" y1="89.608" x2="86.824" y2="89.608" stroke="#202821" stroke-width="1.15" stroke-linecap="round" vector-effect="non-scaling-stroke"/>
<line x1="86.824" y1="89.608" x2="86.824" y2="92.843" stroke="#202821" stroke-width="1.15" stroke-linecap="round" vector-effect="non-scaling-stroke"/>
<line x1="86.824" y1="92.843" x2="95.271" y2="92.843" stroke="#202821" stroke-width="1.15" stroke-linecap="round" vector-effect="non-scaling-stroke"/>
<line x1="95.271" y1="92.843" x2="95.271" y2="90.417" stroke="#202821" stroke-width="1.15" stroke-linecap="round" vector-effect="non-scaling-stroke"/>
<line x1="95.271" y1="90.417" x2="98.012" y2="90.417" stroke="#202821" stroke-width="1.15" stroke-linecap="round" vector-effect="non-scaling-stroke"/>
<line x1="98.012" y1="90.417" x2="98.012" y2="82.509" stroke="#202821" stroke-width="1.15" stroke-linecap="round" vector-effect="non-scaling-stroke"/>
<line x1="98.012" y1="82.509" x2="85.476" y2="82.509" stroke="#202821" stroke-width="1.15" stroke-linecap="round" vector-effect="non-scaling-stroke"/>
<line x1="85.476" y1="82.509" x2="85.476" y2="80.891" stroke="#202821" stroke-width="1.15" stroke-linecap="round" vector-effect="non-scaling-stroke"/>
<line x1="85.476" y1="80.891" x2="100.124" y2="80.891" stroke="#202821" stroke-width="1.15" stroke-linecap="round" vector-effect="non-scaling-stroke"/>
<line x1="100.124" y1="80.891" x2="100.124" y2="92.843" stroke="#202821" stroke-width="1.15" stroke-linecap="round" vector-effect="non-scaling-stroke"/>
<line x1="100.124" y1="92.843" x2="114.322" y2="92.843" stroke="#202821" stroke-width="1.15" stroke-linecap="round" vector-effect="non-scaling-stroke"/>
<line x1="114.322" y1="92.843" x2="114.322" y2="73.342" stroke="#202821" stroke-width="1.15" stroke-linecap="round" vector-effect="non-scaling-stroke"/>
<line x1="114.322" y1="73.342" x2="112.525" y2="73.342" stroke="#202821" stroke-width="1.15" stroke-linecap="round" vector-effect="non-scaling-stroke"/>
<line x1="112.525" y1="73.342" x2="98.012" y2="73.342" stroke="#202821" stroke-width="1.15" stroke-linecap="round" vector-effect="non-scaling-stroke"/>
<line x1="98.012" y1="73.342" x2="98.012" y2="67.052" stroke="#202821" stroke-width="1.15" stroke-linecap="round" vector-effect="non-scaling-stroke"/>
<line x1="98.012" y1="67.052" x2="100.079" y2="67.052" stroke="#202821" stroke-width="1.15" stroke-linecap="round" vector-effect="non-scaling-stroke"/>
<line x1="100.079" y1="67.052" x2="100.079" y2="72.084" stroke="#202821" stroke-width="1.15" stroke-linecap="round" vector-effect="non-scaling-stroke"/>
<line x1="100.079" y1="72.084" x2="111.312" y2="72.084" stroke="#202821" stroke-width="1.15" stroke-linecap="round" vector-effect="non-scaling-stroke"/>
<line x1="114.098" y1="67.501" x2="114.098" y2="56.583" stroke="#202821" stroke-width="1.15" stroke-linecap="round" vector-effect="non-scaling-stroke"/>
<line x1="107.178" y1="56.583" x2="100.079" y2="56.583" stroke="#202821" stroke-width="1.15" stroke-linecap="round" vector-effect="non-scaling-stroke"/>
<line x1="98.012" y1="59.953" x2="100.079" y2="59.953" stroke="#202821" stroke-width="1.15" stroke-linecap="round" vector-effect="non-scaling-stroke"/>
<line x1="100.079" y1="59.953" x2="100.079" y2="56.583" stroke="#202821" stroke-width="1.15" stroke-linecap="round" vector-effect="non-scaling-stroke"/>
<line x1="98.012" y1="59.953" x2="98.012" y2="54.381" stroke="#202821" stroke-width="1.15" stroke-linecap="round" vector-effect="non-scaling-stroke"/>
<line x1="98.012" y1="54.381" x2="103.538" y2="54.381" stroke="#202821" stroke-width="1.15" stroke-linecap="round" vector-effect="non-scaling-stroke"/>
<line x1="103.538" y1="54.381" x2="103.538" y2="20.367" stroke="#202821" stroke-width="1.15" stroke-linecap="round" vector-effect="non-scaling-stroke"/>
<line x1="103.538" y1="20.367" x2="99.764" y2="20.367" stroke="#202821" stroke-width="1.15" stroke-linecap="round" vector-effect="non-scaling-stroke"/>
<line x1="99.764" y1="20.367" x2="99.764" y2="17.312" stroke="#202821" stroke-width="1.15" stroke-linecap="round" vector-effect="non-scaling-stroke"/>
<line x1="99.764" y1="17.312" x2="103.538" y2="17.312" stroke="#202821" stroke-width="1.15" stroke-linecap="round" vector-effect="non-scaling-stroke"/>
<line x1="71.367" y1="17.312" x2="75.950" y2="17.312" stroke="#202821" stroke-width="1.15" stroke-linecap="round" vector-effect="non-scaling-stroke"/>
<line x1="75.950" y1="17.312" x2="75.950" y2="20.367" stroke="#202821" stroke-width="1.15" stroke-linecap="round" vector-effect="non-scaling-stroke"/>
<line x1="75.950" y1="20.367" x2="71.367" y2="20.367" stroke="#202821" stroke-width="1.15" stroke-linecap="round" vector-effect="non-scaling-stroke"/>
<line x1="71.367" y1="20.367" x2="71.367" y2="66.018" stroke="#202821" stroke-width="1.15" stroke-linecap="round" vector-effect="non-scaling-stroke"/>
<line x1="71.367" y1="66.018" x2="69.300" y2="66.018" stroke="#202821" stroke-width="1.15" stroke-linecap="round" vector-effect="non-scaling-stroke"/>
<line x1="69.300" y1="66.018" x2="69.300" y2="43.912" stroke="#202821" stroke-width="1.15" stroke-linecap="round" vector-effect="non-scaling-stroke"/>
<line x1="69.300" y1="43.912" x2="65.525" y2="43.912" stroke="#202821" stroke-width="1.15" stroke-linecap="round" vector-effect="non-scaling-stroke"/>
<line x1="65.525" y1="43.912" x2="65.525" y2="41.755" stroke="#202821" stroke-width="1.15" stroke-linecap="round" vector-effect="non-scaling-stroke"/>
<line x1="52.495" y1="41.755" x2="52.495" y2="43.912" stroke="#202821" stroke-width="1.15" stroke-linecap="round" vector-effect="non-scaling-stroke"/>
<line x1="52.495" y1="43.912" x2="40.902" y2="43.912" stroke="#202821" stroke-width="1.15" stroke-linecap="round" vector-effect="non-scaling-stroke"/>
<line x1="40.902" y1="43.912" x2="40.902" y2="73.927" stroke="#202821" stroke-width="1.15" stroke-linecap="round" vector-effect="non-scaling-stroke"/>
<line x1="71.367" y1="73.927" x2="69.300" y2="73.927" stroke="#202821" stroke-width="1.15" stroke-linecap="round" vector-effect="non-scaling-stroke"/>
<line x1="69.300" y1="73.927" x2="40.902" y2="73.927" stroke="#202821" stroke-width="1.15" stroke-linecap="round" vector-effect="non-scaling-stroke"/>
<line x1="71.367" y1="73.927" x2="71.367" y2="95.000" stroke="#202821" stroke-width="1.15" stroke-linecap="round" vector-effect="non-scaling-stroke"/>
<line x1="83.768" y1="95.000" x2="83.768" y2="95.000" stroke="#202821" stroke-width="1.15" stroke-linecap="round" vector-effect="non-scaling-stroke"/>
<line x1="107.178" y1="56.583" x2="107.178" y2="54.381" stroke="#202821" stroke-width="1.15" stroke-linecap="round" vector-effect="non-scaling-stroke"/>
<line x1="105.695" y1="54.381" x2="105.695" y2="17.312" stroke="#202821" stroke-width="1.15" stroke-linecap="round" vector-effect="non-scaling-stroke"/>
<line x1="105.695" y1="54.381" x2="107.178" y2="54.381" stroke="#202821" stroke-width="1.15" stroke-linecap="round" vector-effect="non-scaling-stroke"/>
<line x1="103.538" y1="17.312" x2="105.695" y2="17.312" stroke="#202821" stroke-width="1.15" stroke-linecap="round" vector-effect="non-scaling-stroke"/>
<line x1="71.367" y1="17.312" x2="69.300" y2="17.312" stroke="#202821" stroke-width="1.15" stroke-linecap="round" vector-effect="non-scaling-stroke"/>
<line x1="65.525" y1="41.755" x2="69.300" y2="41.755" stroke="#202821" stroke-width="1.15" stroke-linecap="round" vector-effect="non-scaling-stroke"/>
<line x1="69.300" y1="41.755" x2="69.300" y2="17.312" stroke="#202821" stroke-width="1.15" stroke-linecap="round" vector-effect="non-scaling-stroke"/>
<line x1="52.495" y1="41.755" x2="38.746" y2="41.755" stroke="#202821" stroke-width="1.15" stroke-linecap="round" vector-effect="non-scaling-stroke"/>
<line x1="38.746" y1="41.755" x2="38.746" y2="76.083" stroke="#202821" stroke-width="1.15" stroke-linecap="round" vector-effect="non-scaling-stroke"/>
<line x1="69.210" y1="76.083" x2="69.210" y2="95.000" stroke="#202821" stroke-width="1.15" stroke-linecap="round" vector-effect="non-scaling-stroke"/>
<line x1="69.210" y1="76.083" x2="38.746" y2="76.083" stroke="#202821" stroke-width="1.15" stroke-linecap="round" vector-effect="non-scaling-stroke"/>
<line x1="83.768" y1="95.000" x2="116.254" y2="95.000" stroke="#202821" stroke-width="1.15" stroke-linecap="round" vector-effect="non-scaling-stroke"/>
<line x1="83.768" y1="92.843" x2="83.768" y2="95.000" stroke="#202821" stroke-width="1.15" stroke-linecap="round" vector-effect="non-scaling-stroke"/>
<line x1="114.098" y1="56.583" x2="114.098" y2="54.381" stroke="#202821" stroke-width="1.15" stroke-linecap="round" vector-effect="non-scaling-stroke"/>
<line x1="114.098" y1="54.381" x2="116.254" y2="54.381" stroke="#202821" stroke-width="1.15" stroke-linecap="round" vector-effect="non-scaling-stroke"/>
<line x1="71.367" y1="95.000" x2="69.210" y2="95.000" stroke="#202821" stroke-width="1.15" stroke-linecap="round" vector-effect="non-scaling-stroke"/>
<line x1="114.098" y1="67.501" x2="114.098" y2="72.084" stroke="#202821" stroke-width="1.15" stroke-linecap="round" vector-effect="non-scaling-stroke"/>
<line x1="111.312" y1="72.084" x2="114.098" y2="72.084" stroke="#202821" stroke-width="1.15" stroke-linecap="round" vector-effect="non-scaling-stroke"/>
<line x1="100.079" y1="59.953" x2="100.079" y2="67.052" stroke="#202821" stroke-width="1.15" stroke-linecap="round" vector-effect="non-scaling-stroke"/>
<line x1="111.312" y1="72.084" x2="111.312" y2="67.501" stroke="#6f6658" stroke-width="0.75" stroke-linecap="round" vector-effect="non-scaling-stroke"/>
<line x1="111.312" y1="67.501" x2="114.098" y2="67.501" stroke="#6f6658" stroke-width="0.75" stroke-linecap="round" vector-effect="non-scaling-stroke"/>
<line x1="111.312" y1="72.084" x2="112.117" y2="68.433" stroke="#6f6658" stroke-width="0.75" stroke-linecap="round" vector-effect="non-scaling-stroke"/>
<line x1="112.117" y1="68.433" x2="114.098" y2="67.501" stroke="#6f6658" stroke-width="0.75" stroke-linecap="round" vector-effect="non-scaling-stroke"/>
<circle cx="110.638" cy="56.583" r="0.8" fill="#4f7fa8"/>
<circle cx="103.538" cy="12.234" r="0.8" fill="#4f7fa8"/>
<circle cx="87.453" cy="7.157" r="0.8" fill="#4f7fa8"/>
<circle cx="71.367" cy="12.234" r="0.8" fill="#4f7fa8"/>
<circle cx="59.010" cy="41.755" r="0.8" fill="#4f7fa8"/>
<circle cx="110.638" cy="55.864" r="0.8" fill="#4f7fa8"/>
<circle cx="110.638" cy="55.145" r="0.8" fill="#4f7fa8"/>
<circle cx="110.638" cy="54.381" r="0.8" fill="#4f7fa8"/>
<circle cx="87.453" cy="6.438" r="0.8" fill="#4f7fa8"/>
<circle cx="87.453" cy="5.719" r="0.8" fill="#4f7fa8"/>
<circle cx="87.498" cy="5.000" r="0.8" fill="#4f7fa8"/>
<circle cx="104.257" cy="11.875" r="0.8" fill="#4f7fa8"/>
<circle cx="104.976" cy="11.515" r="0.8" fill="#4f7fa8"/>
<circle cx="105.695" cy="11.156" r="0.8" fill="#4f7fa8"/>
<circle cx="70.648" cy="11.875" r="0.8" fill="#4f7fa8"/>
<circle cx="69.929" cy="11.515" r="0.8" fill="#4f7fa8"/>
<circle cx="69.300" cy="11.156" r="0.8" fill="#4f7fa8"/>
<circle cx="59.010" cy="43.912" r="0.8" fill="#4f7fa8"/>
<circle cx="59.010" cy="43.193" r="0.8" fill="#4f7fa8"/>
<circle cx="59.010" cy="42.474" r="0.8" fill="#4f7fa8"/>
<circle cx="66.379" cy="69.973" r="0.75" fill="#b98255"/>
<circle cx="77.567" cy="86.643" r="0.75" fill="#b98255"/>
<circle cx="89.708" cy="86.058" r="0.75" fill="#b98255"/>
<circle cx="102.842" cy="77.117" r="0.75" fill="#b98255"/>
<circle cx="102.595" cy="63.502" r="0.75" fill="#b98255"/>
<text x="83.030" y="12.450" fill="#202821" font-size="2.4" font-weight="700" text-anchor="middle" dominant-baseline="middle">阳台</text>
<text x="48.693" y="57.860" fill="#202821" font-size="2.4" font-weight="700" text-anchor="middle" dominant-baseline="middle">主卧</text>
<text x="87.911" y="85.858" fill="#202821" font-size="2.4" font-weight="700" text-anchor="middle" dominant-baseline="middle">卫生间</text>
<text x="74.850" y="85.467" fill="#202821" font-size="2.4" font-weight="700" text-anchor="middle" dominant-baseline="middle">过道</text>
<text x="81.414" y="65.471" fill="#202821" font-size="2.4" font-weight="700" text-anchor="middle" dominant-baseline="middle">餐厅</text>
<text x="83.517" y="36.868" fill="#202821" font-size="2.4" font-weight="700" text-anchor="middle" dominant-baseline="middle">客厅</text>
<text x="104.203" y="62.680" fill="#202821" font-size="2.4" font-weight="700" text-anchor="middle" dominant-baseline="middle">厨房</text>
<text x="104.537" y="80.408" fill="#202821" font-size="2.4" font-weight="700" text-anchor="middle" dominant-baseline="middle">储物间</text>
</svg>